<svg xmlns="http://www.w3.org/2000/svg" xmlns:svg="http://www.w3.org/2000/svg" id="svg4" width="240" height="240" version="1.1" viewBox="0 0 240 240"><metadata id="metadata10"/><path id="path2" fill="#ff9800" fill-opacity="1" stroke-width="11.5" d="m 175.10814,176.07628 c 3.00429,-1.59177 2.97881,-7.98566 0,-9.8995 -14.14266,-9.08643 -28.96928,-11.50435 -50.22748,-12.07064 -21.2582,1.02469 -39.076259,2.34375 -54.342359,13.07584 -3.398285,2.389 -3.228149,7.59529 0,9.54594 2.780722,1.68029 14.173205,-6.92557 28.474709,-10.31976 17.93375,-4.25624 34.916,-2.01251 47.6875,0.0947 12.7715,2.10718 24.4592,11.66546 28.40763,9.57345 z M 73.75,105.5 C 83.276912,105.5 91,97.77691 91,88.25 91,78.723088 83.276912,71 73.75,71 64.223088,71 56.5,78.723088 56.5,88.25 c 0,9.52691 7.723088,17.25 17.25,17.25 m 92.5,0 c 9.52691,0 17.25,-7.72309 17.25,-17.25 C 183.5,78.723088 175.77691,71 166.25,71 156.72309,71 149,78.723088 149,88.25 c 0,9.52691 7.72309,17.25 17.25,17.25 M 120,225 C 69.189803,225 18,173.8102 18,123 18,72.189803 69.189803,20 120,20 c 50.8102,0 102,52.189803 102,103 0,50.8102 -51.1898,102 -102,102 M 120,8 C 56.405,8 5,59.75 5,123 5,186.51275 56.487254,238 120,238 183.51275,238 235,186.51275 235,123 235,59.487254 183.51275,8 120,8 Z"/></svg>